<?xml version="1.0" standalone="no"?>
<!DOCTYPE svg PUBLIC "-//W3C//DTD SVG 20010904//EN"
 "http://www.w3.org/TR/2001/REC-SVG-20010904/DTD/svg10.dtd">
<svg version="1.0" xmlns="http://www.w3.org/2000/svg"
 width="800.000000pt" height="800.000000pt" viewBox="0 0 800.000000 800.000000"
 preserveAspectRatio="xMidYMid meet">
<metadata>
Created by potrace 1.14, written by Peter Selinger 2001-2017
</metadata>
<g transform="translate(0.000000,800.000000) scale(0.100000,-0.100000)"
fill="#000000" stroke="none">
<path d="M6441 6670 c-70 -17 -131 -87 -131 -150 0 -30 -10 -50 -52 -102 -29
-36 -79 -98 -110 -139 -32 -41 -99 -128 -150 -194 -52 -66 -128 -172 -170
-235 -42 -63 -106 -151 -142 -195 -37 -44 -96 -118 -133 -165 -37 -47 -93
-115 -124 -152 -32 -36 -76 -94 -99 -128 -60 -88 -242 -314 -314 -390 -71 -74
-142 -167 -156 -205 -6 -15 -10 -39 -10 -54 0 -16 -9 -36 -21 -47 -38 -33 -50
-77 -43 -152 6 -65 -6 -237 -26 -362 -10 -65 -25 -213 -41 -395 -6 -71 -17
-152 -24 -180 -7 -27 -19 -70 -25 -94 -6 -23 -13 -41 -16 -38 -3 2 -28 58 -55
123 -34 80 -53 141 -59 188 -13 107 -42 135 -198 188 -48 16 -159 65 -247 108
-189 92 -287 134 -450 189 -137 46 -249 92 -455 185 -80 37 -189 80 -242 96
-53 17 -116 42 -140 55 -24 14 -57 25 -75 25 -58 0 -429 -96 -1098 -285 -234
-66 -284 -77 -375 -82 -120 -6 -140 -14 -198 -77 -50 -54 -59 -84 -43 -145 10
-41 8 -58 -19 -166 -18 -66 -44 -161 -60 -210 -16 -50 -35 -129 -44 -175 -8
-47 -24 -107 -34 -135 -11 -27 -22 -72 -26 -100 -13 -95 -40 -200 -57 -220
-27 -33 -39 -62 -39 -97 0 -76 47 -114 325 -268 83 -46 179 -100 215 -120 132
-75 290 -161 505 -273 208 -108 379 -211 630 -377 l110 -72 63 5 c49 4 65 2
69 -9 8 -22 61 -46 99 -46 19 0 54 12 81 28 69 41 85 47 255 98 211 63 377
100 823 186 116 22 239 49 275 60 36 11 115 27 175 35 333 47 564 102 611 146
51 48 48 115 -11 261 -14 34 -36 105 -50 158 -13 52 -51 174 -85 270 -81 232
-78 216 -42 223 16 3 53 28 83 55 30 27 135 103 234 169 108 72 216 154 270
205 96 90 248 213 357 291 93 67 154 137 173 200 19 65 141 249 226 342 87 95
157 185 214 275 26 41 87 116 135 165 77 80 160 179 342 411 31 39 98 116 150
171 165 179 211 234 223 271 7 20 17 37 22 36 4 0 25 -4 47 -8 49 -11 98 11
127 56 19 30 20 43 15 158 -7 145 -25 233 -63 298 -44 75 -284 315 -372 371
-100 64 -130 76 -280 110 -154 36 -206 42 -250 31z m241 -288 c108 -30 191
-87 315 -215 62 -64 119 -130 129 -148 16 -31 43 -243 32 -254 -2 -3 -19 0
-37 6 -73 26 -127 -8 -253 -158 -38 -46 -73 -83 -77 -83 -5 0 -12 15 -15 34
-11 60 -65 152 -119 205 -98 96 -275 204 -356 217 -23 4 -41 10 -41 14 0 30
315 399 340 400 9 0 45 -8 82 -18z m-350 -689 c147 -88 175 -120 210 -247 10
-39 28 -86 39 -104 l19 -34 -32 -41 c-112 -144 -204 -255 -287 -342 -52 -55
-115 -131 -140 -170 -58 -90 -113 -162 -196 -255 -37 -41 -89 -107 -116 -147
-27 -39 -52 -74 -57 -77 -5 -3 -33 22 -62 56 -106 120 -246 202 -411 238 -49
11 -100 20 -114 20 -14 0 -25 4 -25 8 0 4 21 28 46 52 53 53 255 300 334 411
30 43 134 176 231 296 97 120 201 253 232 295 63 85 56 82 196 86 47 2 62 -3
133 -45z m-1066 -1377 c124 -33 245 -126 314 -241 l34 -58 -28 -21 c-59 -43
-292 -229 -322 -257 l-31 -30 -44 44 c-31 31 -66 52 -118 72 l-74 28 6 51 c4
28 13 110 22 181 8 72 15 153 15 182 0 46 3 52 23 56 49 10 155 6 203 -7z
m-2129 -295 c142 -66 325 -141 388 -161 61 -19 220 -78 278 -104 103 -46 267
-129 267 -136 0 -15 -449 -143 -605 -173 -79 -15 -120 -22 -440 -71 -88 -14
-205 -34 -260 -46 -55 -11 -122 -20 -148 -20 -27 0 -68 -5 -92 -11 l-44 -11
-183 104 c-159 91 -372 223 -675 418 -46 29 -83 56 -83 60 0 7 40 19 395 116
132 36 287 79 345 95 58 16 161 42 230 59 69 16 138 33 154 38 38 11 294 -74
473 -157z m-1712 -388 c44 -25 112 -68 151 -94 125 -84 433 -277 502 -315 66
-37 111 -62 247 -143 l71 -41 17 -112 c19 -126 30 -237 52 -536 9 -111 22
-250 30 -309 9 -58 14 -108 12 -110 -2 -2 -44 22 -93 54 -49 31 -132 83 -183
116 -52 34 -201 115 -330 182 -130 67 -297 156 -371 197 -194 108 -223 124
-345 191 -146 80 -144 78 -133 130 4 23 17 87 27 142 11 55 26 116 35 136 8
19 22 77 31 128 9 51 29 132 44 180 15 47 36 122 46 166 25 116 27 118 73 100
20 -9 73 -37 117 -62z m2907 -235 c9 -24 58 -140 109 -258 109 -255 189 -480
230 -645 17 -65 35 -128 41 -138 6 -12 6 -23 0 -29 -13 -13 -172 -44 -327 -63
-71 -9 -170 -28 -220 -41 -49 -14 -191 -45 -315 -69 -406 -80 -523 -105 -655
-140 -125 -33 -363 -104 -396 -119 -14 -6 -19 3 -28 56 -22 129 -50 378 -61
543 -6 94 -18 230 -26 303 l-14 133 34 33 c21 20 37 46 41 68 6 34 10 38 53
47 80 17 203 37 517 86 277 43 358 63 724 173 129 39 241 78 250 87 22 22 25
20 43 -27z"/>
<path d="M1058 6264 c-53 -28 -63 -64 -61 -214 2 -74 11 -200 20 -280 14 -116
17 -203 15 -435 -3 -261 -6 -301 -28 -402 -13 -62 -24 -126 -24 -143 0 -75 58
-140 125 -140 42 0 92 34 110 72 8 18 26 91 40 162 20 104 25 159 25 285 0 86
4 161 8 167 4 6 59 17 122 24 258 30 2976 18 3145 -14 l60 -11 7 -80 c3 -44
11 -142 17 -218 7 -83 17 -150 26 -168 32 -61 129 -79 184 -33 46 39 55 85 42
233 -6 69 -16 198 -21 286 -6 88 -17 219 -26 291 -8 72 -17 202 -21 289 -6
147 -8 159 -30 186 -14 16 -42 34 -63 40 -32 10 -44 9 -76 -7 -84 -42 -96
-101 -74 -386 6 -88 10 -161 8 -162 -2 -1 -199 3 -438 10 -504 14 -2498 16
-2675 3 -66 -4 -134 -11 -151 -15 l-32 -6 -11 88 c-6 49 -14 109 -17 134 -4
25 -9 117 -13 205 -8 177 -19 213 -71 240 -36 19 -87 19 -122 -1z"/>
</g>
</svg>
