<?xml version="1.0" encoding="UTF-8" standalone="no"?>
<svg
   xml:space="preserve"
   viewBox="0 0 176.43625 134.31763"
   version="1.1"
   id="svg1"
   width="176.43625"
   height="134.31763"
   xmlns="http://www.w3.org/2000/svg"
   xmlns:svg="http://www.w3.org/2000/svg"><defs
   id="defs1" />
  <path
   d="m 52.232616,134.11343 c -0.570884,-0.19499 -1.191943,-0.58336 -1.380132,-0.86306 -0.294113,-0.43712 -0.572778,-0.49026 -1.984376,-0.37835 -1.642213,0.13019 -1.642213,0.13019 -4.552629,-1.79358 -6.643899,-4.39158 -11.165245,-7.09558 -16.668751,-9.96879 -5.675391,-2.96295 -9.874951,-5.23173 -13.361458,-7.21842 -0.945886,-0.53899 -3.50573,-1.96711 -5.6885416,-3.1736 -5.459664,-3.01767 -7.452282,-4.33923 -8.069863,-5.35215 -0.849425,-1.39317 -0.667642,-2.91079 0.515557,-4.30413 0.446814,-0.52617 1.156659,-3.293737 1.492963,-5.820827 0.09683,-0.72761 0.439486,-2.03729 0.761459,-2.91042 0.321973,-0.87312 0.73349,-2.51896 0.914483,-3.65742 0.180992,-1.13845 0.619862,-2.92439 0.975265,-3.96875 0.355404,-1.04435 1.072043,-3.55083 1.592532,-5.56994 0.76784,-2.97866 0.89127,-3.79199 0.654369,-4.31193 -0.400429,-0.87885 -0.366039,-2.08883 0.08368,-2.94416 0.20661,-0.39296 0.917863,-1.24221 1.580562,-1.88722 1.2049066,-1.17276 1.2049066,-1.17276 4.3206996,-1.37323 2.738935,-0.17623 3.979836,-0.44409 10.259543,-2.21459 18.245409,-5.14413 27.495154,-7.54515 29.044772,-7.53936 0.46923,0.002 1.370857,0.29915 2.003615,0.66088 0.632759,0.36173 2.180571,0.97058 3.439584,1.35299 1.259012,0.38242 3.896457,1.40933 5.860988,2.28203 7.112287,3.15949 9.499911,4.14069 12.724821,5.22926 4.41025,1.48868 6.98524,2.56631 12.01372,5.02772 2.32834,1.13971 5.27075,2.42497 6.53869,2.85614 1.26795,0.43117 2.69629,1.01226 3.1741,1.29132 1.3193,0.77051 2.061172,2.04894 2.061172,3.55191 0,0.92238 0.36118,2.15376 1.30566,4.45145 1.80944,4.4019 1.75742,4.33067 2.12894,2.9151 0.17023,-0.6486 0.46898,-1.77459 0.6639,-2.5022 0.19492,-0.7276 0.48636,-2.87073 0.64765,-4.7625 0.41024,-4.81185 0.81846,-8.74217 1.08548,-10.45104 0.5127,-3.28109 0.8413,-7.8627 0.68475,-9.54715 -0.1837,-1.9765 0.0565,-2.9173 1.00771,-3.9466 0.35723,-0.38656 0.67036,-1.13407 0.75345,-1.79864 0.176,-1.40764 1.5138,-3.43268 4.04885,-6.12876 2.19216,-2.33142 6.99057,-8.25924 8.57881,-10.59802 0.60772,-0.8949 1.78129,-2.42083 2.60793,-3.39094 0.82665,-0.97012 2.30232,-2.77588 3.27927,-4.01281 0.97696,-1.23693 2.56177,-3.201457 3.52181,-4.365623 0.96005,-1.164167 2.6537,-3.484147 3.76369,-5.155512 1.10998,-1.671365 3.12705,-4.469334 4.48236,-6.217709 1.35532,-1.748375 2.90754,-3.759291 3.44938,-4.468704 0.54183,-0.709412 1.84836,-2.3645515 2.90338,-3.6780885 1.60545,-1.99883 1.91823,-2.547901 1.91823,-3.367386 0,-1.153197 0.83685,-2.517695 2.04233,-3.33006897 1.68014,-1.132247 3.09237,-1.048491 9.73163,0.57715597 4.05056,0.991794 6.02062,2.281834 10.86299,7.113343 2.19111,2.1861875 4.30345,4.5301225 4.69409,5.2087445 0.99886,1.735233 1.48875,4.059701 1.66376,7.894266 0.13866,3.038396 0.10637,3.377483 -0.3972,4.170605 -0.76297,1.201666 -2.06251,1.780888 -3.3666,1.500543 -0.56189,-0.120792 -1.12199,-0.225824 -1.24466,-0.233406 -0.12267,-0.0076 -0.37363,0.424279 -0.5577,0.959688 -0.34121,0.992524 -1.5389,2.441522 -5.92188,7.164462 -1.35811,1.46345 -3.13511,3.50532 -3.9489,4.53748 -4.83748,6.13566 -7.01862,8.75072 -9.06841,10.8725 -1.26524,1.30969 -2.86855,3.27422 -3.56289,4.36563 -1.4961,2.35165 -3.36632,4.75864 -5.57851,7.17963 -2.30469,2.52221 -5.37605,7.15128 -6.07834,9.1611 -0.68326,1.95539 -1.90617,3.36013 -4.61554,5.30183 -2.79739,2.00478 -6.87803,5.31456 -8.86354,7.18916 -2.61937,2.47304 -3.69755,3.29686 -8.33438,6.36813 -2.25557,1.49401 -4.74257,3.29978 -5.52666,4.01282 -0.7841,0.71304 -1.77699,1.36671 -2.20644,1.45259 -0.63493,0.12699 -0.75384,0.26033 -0.63649,0.71368 0.0794,0.30664 0.87028,2.64111 1.75758,5.187727 0.8873,2.54661 1.90281,5.76625 2.25669,7.15475 0.35388,1.3885 0.94531,3.26752 1.31429,4.17559 0.36899,0.90808 0.83897,2.29637 1.0444,3.08509 0.44204,1.69709 0.20126,2.91757 -0.75233,3.81342 -1.20769,1.13457 -8.25507,2.84113 -15.375002,3.72315 -1.30969,0.16224 -3.69094,0.63868 -5.29166,1.05874 -1.60073,0.42007 -5.17261,1.19522 -7.93751,1.72257 -11.03991,2.10565 -16.270567,3.28099 -21.166662,4.75619 -4.146191,1.24926 -5.356452,1.70522 -6.503928,2.4503 -1.442732,0.93681 -2.375295,1.12365 -3.570602,0.7154 z m 5.973488,-8.89084 c 6.827798,-2.12234 9.969244,-2.85846 24.077084,-5.64189 3.27422,-0.64599 7.02469,-1.46408 8.33438,-1.81798 1.30968,-0.35389 3.92906,-0.83993 5.82083,-1.08009 4.100352,-0.52054 8.316862,-1.34272 8.663432,-1.68929 0.15579,-0.15579 0.1467,-0.44053 -0.0242,-0.75996 -0.15036,-0.28096 -0.6341,-1.93961 -1.07497,-3.68591 -0.44088,-1.74629 -1.44696,-5.01178 -2.23574,-7.25664 -1.24595,-3.545937 -4.409712,-11.302207 -6.618102,-16.224947 -0.67425,-1.50296 -0.71821,-1.54343 -1.20149,-1.10607 -0.50003,0.45252 -10.23706,3.50346 -15.76513,4.93976 -3.4493,0.89619 -5.18056,1.21116 -15.213544,2.76782 -3.454713,0.53602 -6.892754,1.1326 -8.506418,1.47606 -1.138471,0.24233 -1.243912,0.33404 -1.411585,1.22781 -0.112624,0.60034 -0.524376,1.28957 -1.087907,1.82105 -0.906698,0.85513 -0.906698,0.85513 -0.516326,4.375627 0.214704,1.93627 0.520567,5.54456 0.679694,8.01841 0.279693,4.34821 1.019977,10.92634 1.617207,14.37041 0.241374,1.39195 0.361835,1.63903 0.722603,1.48214 0.238117,-0.10355 1.921222,-0.65089 3.740232,-1.21631 z m -11.767353,-3.78425 c -0.220204,-1.56868 -0.578111,-5.18789 -0.795349,-8.04269 -0.644818,-8.47377 -0.979316,-11.86411 -1.443554,-14.631277 -0.516108,-3.07636 0.371333,-2.30042 -7.954161,-6.95475 -2.56063,-1.4315 -6.632637,-3.97388 -12.992559,-8.11196 -2.41648,-1.57229 -5.4463,-3.40935 -6.732934,-4.08236 -2.066586,-1.081 -2.374993,-1.1749 -2.645188,-0.80538 -0.16822,0.23005 -0.515697,1.38949 -0.772171,2.57652 -0.256474,1.18704 -0.803888,3.19971 -1.216476,4.47262 -0.412588,1.27291 -0.941986,3.41998 -1.17644,4.77128 -0.234455,1.3513 -0.607771,2.88187 -0.8295916,3.40125 -0.221822,0.51939 -0.629527,2.13497 -0.906013,3.59018 -0.276486,1.45521 -0.606767,3.148427 -0.733957,3.762707 -0.186366,0.90008 -0.148543,1.18695 0.194849,1.47784 0.234358,0.19853 1.7357926,1.07857 3.3365216,1.95565 3.233529,1.77173 3.987073,2.18839 9.128125,5.04726 1.964531,1.09245 6.376074,3.43643 9.803427,5.20884 3.427354,1.77241 7.356417,3.93904 8.731251,4.81472 1.374834,0.87568 3.5605,2.2671 4.857036,3.09203 1.296536,0.82494 2.400137,1.45709 2.452446,1.40478 0.05231,-0.0523 -0.08506,-1.37858 -0.305262,-2.94726 z m 3.168394,-32.392107 c 1.309688,-0.12569 3.631407,-0.47507 5.159376,-0.7764 1.527968,-0.30133 4.385468,-0.79387 6.35,-1.09454 10.23304,-1.56616 11.944747,-1.87927 15.874997,-2.90392 4.11132,-1.07186 11.1125,-3.24825 11.1125,-3.45444 0,-0.17564 -4.34072,-2.38711 -7.06296,-3.59837 -1.53736,-0.68404 -5.73631,-2.25439 -7.35683,-2.75134 -1.680065,-0.51522 -6.519462,-2.52272 -10.290623,-4.2688 -4.596594,-2.12827 -11.083647,-4.28339 -12.331251,-4.09667 -1.189201,0.17799 -6.742276,1.53508 -10.31875,2.52176 -1.527969,0.42154 -5.635626,1.54805 -9.128126,2.50335 -9.391214,2.56877 -10.451042,2.88167 -10.451042,3.08557 0,0.10222 0.982266,0.81689 2.182813,1.58817 7.832146,5.03166 13.65139,8.6351 17.79323,11.01806 3.642056,2.09541 4.918117,2.70665 5.423958,2.59808 0.363802,-0.0781 1.733021,-0.24482 3.042708,-0.37051 z m 69.743435,-11.03462 c 0.33233,-0.40043 7.18258,-5.91969 8.85641,-7.13562 0.75992,-0.55204 0.75992,-0.55204 -0.1585,-2.0953 -1.81279,-3.04609 -5.00708,-5.50292 -8.29194,-6.37758 -1.42665,-0.37987 -3.78989,-0.47668 -5.12382,-0.2099 -0.78953,0.15791 -0.78953,0.15791 -0.96839,3.1496 -0.0984,1.64542 -0.35328,4.1536 -0.56646,5.57373 -0.21318,1.42012 -0.38761,2.83688 -0.38761,3.14836 0,0.45893 0.39749,0.72883 2.09613,1.42335 1.50565,0.6156 2.34414,1.14568 2.97656,1.88173 0.48424,0.56359 0.95516,1.03478 1.04648,1.0471 0.0913,0.0123 0.32583,-0.17014 0.52114,-0.40547 z m 15.3023,-16.58985 c 0.71314,-1.045 2.09356,-2.79296 3.0676,-3.88437 2.2016,-2.46686 3.65738,-4.35875 5.19163,-6.74687 0.65442,-1.01865 2.31518,-3.04271 3.69057,-4.49792 2.17408,-2.30025 4.19446,-4.70747 7.58677,-9.03944 0.86291,-1.10193 0.86291,-1.10193 0.3458,-1.98437 -0.28441,-0.48534 -0.74982,-1.72678 -1.03424,-2.75875 -0.28442,-1.03196 -0.70541,-2.24041 -0.93553,-2.68542 -0.55749,-1.078065 -2.03973,-2.313157 -4.60696,-3.838791 -2.23969,-1.330982 -2.58976,-1.398922 -5.5915,-1.085178 -1.64171,0.171593 -1.64171,0.171593 -4.07371,3.40968 -1.3376,1.780949 -4.09887,5.286839 -6.13616,7.790869 -2.03729,2.50403 -4.35901,5.46875 -5.15938,6.58827 -2.1214,2.96733 -7.43608,9.49978 -8.84211,10.86811 -0.66663,0.64877 -1.21205,1.27384 -1.21205,1.38907 0,0.11522 0.29891,0.20949 0.66426,0.20949 0.36534,0 1.72286,0.2358 3.01671,0.524 4.35202,0.9694 8.07458,3.12901 10.87245,6.30754 0.77859,0.88453 1.51544,1.54655 1.63743,1.47115 0.12199,-0.0754 0.80528,-0.99208 1.51842,-2.03707 z m 27.4805,-33.319264 c 2.42982,-2.907096 3.79247,-4.100012 4.92634,-4.312728 0.51435,-0.09649 1.31467,-0.04315 1.77848,0.118534 0.46382,0.161686 0.90323,0.234042 0.97649,0.16079 0.0733,-0.07325 0.008,-1.422548 -0.14489,-2.998435 -0.15961,-1.644605 -0.46706,-3.23069 -0.72167,-3.723058 -0.24397,-0.471796 -1.77147,-2.22854 -3.39444,-3.903878 -3.29551,-3.401855 -5.48878,-4.8980245 -8.33851,-5.6882315 -0.96978,-0.268913 -1.94441,-0.486455 -2.16585,-0.483428 -0.22143,0.003 -1.43719,1.163887 -2.70169,2.579688 -2.4269,2.7172855 -6.29987,7.6590445 -6.29987,8.0384005 0,0.123379 0.32743,0.224419 0.72761,0.224533 1.6936,4.86e-4 7.28931,3.343619 9.79503,5.852 1.44109,1.442622 2.83255,3.855744 3.12635,5.421827 0.0925,0.49324 0.26813,0.8968 0.39021,0.8968 0.12208,0 1.04297,-0.98227 2.04641,-2.182814 z M 7.9854944,53.032693 c -0.95642,-0.58311 -1.637725,-1.89944 -1.637725,-3.16421 0,-0.44371 0.287051,-2.14417 0.63789,-3.77881 0.574018,-2.67448 0.646873,-3.74036 0.727604,-10.64499 0.07184,-6.1443 -0.0036,-8.437219 -0.378589,-11.509372 -0.257567,-2.110052 -0.495692,-5.443802 -0.529167,-7.408333 -0.05101,-2.99379 0.0148,-3.710319 0.406637,-4.427293 1.196193,-2.1887605 4.5131806,-2.1887605 5.6604726,0 0.336861,0.642651 0.495664,1.908365 0.638459,5.088751 0.104539,2.328333 0.258219,4.769115 0.341511,5.423958 0.810487,6.372097 0.678083,5.890816 1.571447,5.712143 0.446547,-0.08931 2.129176,-0.26848 3.739174,-0.398156 4.31653,-0.347674 57.69895,-0.28352 71.05748,0.0854 6.33016,0.174817 11.547462,0.293154 11.594002,0.262972 0.0465,-0.03018 -0.0565,-1.957306 -0.22893,-4.282498 -0.17247,-2.325192 -0.26807,-5.128646 -0.21246,-6.229899 0.11685,-2.313906 0.59991,-3.193895 2.18562,-3.98149 0.85187,-0.423107 1.15184,-0.451952 2.01395,-0.193659 0.55714,0.166925 1.30022,0.644848 1.65127,1.062051 0.59567,0.70792 0.64975,1.036473 0.81009,4.922375 0.0945,2.290104 0.34668,5.72684 0.5604,7.637191 0.21372,1.910352 0.51229,5.378369 0.66349,7.706709 0.15119,2.32832 0.40457,5.73089 0.56307,7.56124 0.34005,3.92712 0.12219,5.1452 -1.10496,6.17777 -1.44456,1.21551 -4.01503,0.74564 -4.86002,-0.8884 -0.23653,-0.4574 -0.51496,-2.24267 -0.69047,-4.4273 -0.71325,-8.87768 -0.43502,-7.85505 -2.22942,-8.19424 -2.729222,-0.51588 -27.165822,-0.87327 -54.239591,-0.79326 -19.571952,0.0579 -26.675167,0.16362 -28.971876,0.43139 -1.67349,0.19512 -3.130182,0.4834 -3.237094,0.64064 -0.106913,0.15725 -0.19621,2.14211 -0.198438,4.41082 -0.0033,3.32621 -0.133775,4.78632 -0.673998,7.54064 -0.368471,1.87863 -0.843184,3.80347 -1.054917,4.2774 -0.459154,1.02776 -1.804775,1.91444 -2.9053446,1.91444 -0.436562,0 -1.187868,-0.24028 -1.669567,-0.53397 z"
   style="fill:#000000"
   id="path1" />
</svg>
