<svg xmlns="http://www.w3.org/2000/svg" xml:space="preserve" viewBox="0 0 211.66667 211.66667">
  <path d="M80.168178 204.83437c-.570884-.19499-1.191943-.58336-1.380132-.86306-.294113-.43712-.572778-.49026-1.984376-.37835-1.642213.13019-1.642213.13019-4.552629-1.79358-6.643899-4.39158-11.165245-7.09558-16.668751-9.96879-5.675391-2.96295-9.874951-5.23173-13.361458-7.21842-.945886-.53899-3.50573-1.96711-5.688542-3.1736-5.459664-3.01767-7.452282-4.33923-8.069863-5.35215-.849425-1.39317-.667642-2.91079.515557-4.30413.446814-.52617 1.156659-3.29374 1.492963-5.82083.09683-.72761.439486-2.03729.761459-2.91042.321973-.87312.73349-2.51896.914483-3.65742.180992-1.13845.619862-2.92439.975265-3.96875.355404-1.04435 1.072043-3.55083 1.592532-5.56994.76784-2.97866.89127-3.79199.654369-4.31193-.400429-.87885-.366039-2.08883.08368-2.94416.20661-.39296.917863-1.24221 1.580562-1.88722 1.204907-1.17276 1.204907-1.17276 4.3207-1.37323 2.738935-.17623 3.979836-.44409 10.259543-2.21459 18.245409-5.14413 27.495154-7.54515 29.044772-7.53936.46923.002 1.370857.29915 2.003615.66088.632759.36173 2.180571.97058 3.439584 1.35299 1.259012.38242 3.896457 1.40933 5.860988 2.28203 7.112287 3.15949 9.499911 4.14069 12.724821 5.22926 4.41025 1.48868 6.98524 2.56631 12.01372 5.02772 2.32834 1.13971 5.27075 2.42497 6.53869 2.85614 1.26795.43117 2.69629 1.01226 3.1741 1.29132 1.3193.77051 2.06117 2.04894 2.06117 3.55191 0 .92238.36118 2.15376 1.30566 4.45145 1.80944 4.4019 1.75742 4.33067 2.12894 2.9151.17023-.6486.46898-1.77459.6639-2.5022.19492-.7276.48636-2.87073.64765-4.7625.41024-4.81185.81846-8.74217 1.08548-10.45104.5127-3.28109.8413-7.8627.68475-9.54715-.1837-1.9765.0565-2.9173 1.00771-3.9466.35723-.38656.67036-1.13407.75345-1.79864.176-1.40764 1.5138-3.43268 4.04885-6.12876 2.19216-2.33142 6.99057-8.25924 8.57881-10.59802.60772-.8949 1.78129-2.42083 2.60793-3.39094.82665-.97012 2.30232-2.77588 3.27927-4.01281.97696-1.23693 2.56177-3.201457 3.52181-4.365623.96005-1.164167 2.6537-3.484147 3.76369-5.155512 1.10998-1.671365 3.12705-4.469334 4.48236-6.217709 1.35532-1.748375 2.90754-3.759291 3.44938-4.468704.54183-.709412 1.84836-2.364551 2.90338-3.678088 1.60545-1.99883 1.91823-2.547901 1.91823-3.367386 0-1.153197.83685-2.517695 2.04233-3.330069 1.68014-1.132247 3.09237-1.048491 9.73163.577156 4.05056.991794 6.02062 2.281834 10.86299 7.113343 2.19111 2.186187 4.30345 4.530122 4.69409 5.208744.99886 1.735233 1.48875 4.059701 1.66376 7.894266.13866 3.038396.10637 3.377483-.3972 4.170605-.76297 1.201666-2.06251 1.780888-3.3666 1.500543-.56189-.120792-1.12199-.225824-1.24466-.233406-.12267-.0076-.37363.424279-.5577.959688-.34121.992524-1.5389 2.441522-5.92188 7.164462-1.35811 1.46345-3.13511 3.50532-3.9489 4.53748-4.83748 6.13566-7.01862 8.75072-9.06841 10.8725-1.26524 1.30969-2.86855 3.27422-3.56289 4.36563-1.4961 2.35165-3.36632 4.75864-5.57851 7.17963-2.30469 2.52221-5.37605 7.15128-6.07834 9.1611-.68326 1.95539-1.90617 3.36013-4.61554 5.30183-2.79739 2.00478-6.87803 5.31456-8.86354 7.18916-2.61937 2.47304-3.69755 3.29686-8.33438 6.36813-2.25557 1.49401-4.74257 3.29978-5.52666 4.01282-.7841.71304-1.77699 1.36671-2.20644 1.45259-.63493.12699-.75384.26033-.63649.71368.0794.30664.87028 2.64111 1.75758 5.18773.8873 2.54661 1.90281 5.76625 2.25669 7.15475.35388 1.3885.94531 3.26752 1.31429 4.17559.36899.90808.83897 2.29637 1.0444 3.08509.44204 1.69709.20126 2.91757-.75233 3.81342-1.20769 1.13457-8.25507 2.84113-15.375 3.72315-1.30969.16224-3.69094.63868-5.29166 1.05874-1.60073.42007-5.17261 1.19522-7.93751 1.72257-11.03991 2.10565-16.270567 3.28099-21.166662 4.75619-4.146191 1.24926-5.356452 1.70522-6.503928 2.4503-1.442732.93681-2.375295 1.12365-3.570602.7154zm5.973488-8.89084c6.827798-2.12234 9.969244-2.85846 24.077084-5.64189 3.27422-.64599 7.02469-1.46408 8.33438-1.81798 1.30968-.35389 3.92906-.83993 5.82083-1.08009 4.10035-.52054 8.31686-1.34272 8.66343-1.68929.15579-.15579.1467-.44053-.0242-.75996-.15036-.28096-.6341-1.93961-1.07497-3.68591-.44088-1.74629-1.44696-5.01178-2.23574-7.25664-1.24595-3.54594-4.40971-11.30221-6.6181-16.22495-.67425-1.50296-.71821-1.54343-1.20149-1.10607-.50003.45252-10.23706 3.50346-15.76513 4.93976-3.4493.89619-5.18056 1.21116-15.213544 2.76782-3.454713.53602-6.892754 1.1326-8.506418 1.47606-1.138471.24233-1.243912.33404-1.411585 1.22781-.112624.60034-.524376 1.28957-1.087907 1.82105-.906698.85513-.906698.85513-.516326 4.37563.214704 1.93627.520567 5.54456.679694 8.01841.279693 4.34821 1.019977 10.92634 1.617207 14.37041.241374 1.39195.361835 1.63903.722603 1.48214.238117-.10355 1.921222-.65089 3.740232-1.21631zm-11.767353-3.78425c-.220204-1.56868-.578111-5.18789-.795349-8.04269-.644818-8.47377-.979316-11.86411-1.443554-14.63128-.516108-3.07636.371333-2.30042-7.954161-6.95475-2.56063-1.4315-6.632637-3.97388-12.992559-8.11196-2.41648-1.57229-5.4463-3.40935-6.732934-4.08236-2.066586-1.081-2.374993-1.1749-2.645188-.80538-.16822.23005-.515697 1.38949-.772171 2.57652-.256474 1.18704-.803888 3.19971-1.216476 4.47262-.412588 1.27291-.941986 3.41998-1.17644 4.77128-.234455 1.3513-.607771 2.88187-.829592 3.40125-.221822.51939-.629527 2.13497-.906013 3.59018-.276486 1.45521-.606767 3.14843-.733957 3.76271-.186366.90008-.148543 1.18695.194849 1.47784.234358.19853 1.735793 1.07857 3.336522 1.95565 3.233529 1.77173 3.987073 2.18839 9.128125 5.04726 1.964531 1.09245 6.376074 3.43643 9.803427 5.20884 3.427354 1.77241 7.356417 3.93904 8.731251 4.81472 1.374834.87568 3.5605 2.2671 4.857036 3.09203 1.296536.82494 2.400137 1.45709 2.452446 1.40478.05231-.0523-.08506-1.37858-.305262-2.94726zm3.168394-32.39211c1.309688-.12569 3.631407-.47507 5.159376-.7764 1.527968-.30133 4.385468-.79387 6.35-1.09454 10.23304-1.56616 11.944747-1.87927 15.874997-2.90392 4.11132-1.07186 11.1125-3.24825 11.1125-3.45444 0-.17564-4.34072-2.38711-7.06296-3.59837-1.53736-.68404-5.73631-2.25439-7.35683-2.75134-1.680065-.51522-6.519462-2.52272-10.290623-4.2688-4.596594-2.12827-11.083647-4.28339-12.331251-4.09667-1.189201.17799-6.742276 1.53508-10.31875 2.52176-1.527969.42154-5.635626 1.54805-9.128126 2.50335-9.391214 2.56877-10.451042 2.88167-10.451042 3.08557 0 .10222.982266.81689 2.182813 1.58817 7.832146 5.03166 13.65139 8.6351 17.79323 11.01806 3.642056 2.09541 4.918117 2.70665 5.423958 2.59808.363802-.0781 1.733021-.24482 3.042708-.37051zm69.743433-11.03462c.33233-.40043 7.18258-5.91969 8.85641-7.13562.75992-.55204.75992-.55204-.1585-2.0953-1.81279-3.04609-5.00708-5.50292-8.29194-6.37758-1.42665-.37987-3.78989-.47668-5.12382-.2099-.78953.15791-.78953.15791-.96839 3.1496-.0984 1.64542-.35328 4.1536-.56646 5.57373-.21318 1.42012-.38761 2.83688-.38761 3.14836 0 .45893.39749.72883 2.09613 1.42335 1.50565.6156 2.34414 1.14568 2.97656 1.88173.48424.56359.95516 1.03478 1.04648 1.0471.0913.0123.32583-.17014.52114-.40547zm15.3023-16.58985c.71314-1.045 2.09356-2.79296 3.0676-3.88437 2.2016-2.46686 3.65738-4.35875 5.19163-6.74687.65442-1.01865 2.31518-3.04271 3.69057-4.49792 2.17408-2.30025 4.19446-4.70747 7.58677-9.03944.86291-1.10193.86291-1.10193.3458-1.98437-.28441-.48534-.74982-1.72678-1.03424-2.75875-.28442-1.03196-.70541-2.24041-.93553-2.68542-.55749-1.078065-2.03973-2.313157-4.60696-3.838791-2.23969-1.330982-2.58976-1.398922-5.5915-1.085178-1.64171.171593-1.64171.171593-4.07371 3.40968-1.3376 1.780949-4.09887 5.286839-6.13616 7.790869-2.03729 2.50403-4.35901 5.46875-5.15938 6.58827-2.1214 2.96733-7.43608 9.49978-8.84211 10.86811-.66663.64877-1.21205 1.27384-1.21205 1.38907 0 .11522.29891.20949.66426.20949.36534 0 1.72286.2358 3.01671.524 4.35202.9694 8.07458 3.12901 10.87245 6.30754.77859.88453 1.51544 1.54655 1.63743 1.47115.12199-.0754.80528-.99208 1.51842-2.03707zm27.4805-33.319264c2.42982-2.907096 3.79247-4.100012 4.92634-4.312728.51435-.09649 1.31467-.04315 1.77848.118534.46382.161686.90323.234042.97649.16079.0733-.07325.008-1.422548-.14489-2.998435-.15961-1.644605-.46706-3.23069-.72167-3.723058-.24397-.471796-1.77147-2.22854-3.39444-3.903878-3.29551-3.401855-5.48878-4.898024-8.33851-5.688231-.96978-.268913-1.94441-.486455-2.16585-.483428-.22143.003-1.43719 1.163887-2.70169 2.579688-2.4269 2.717285-6.29987 7.659044-6.29987 8.0384 0 .123379.32743.224419.72761.224533 1.6936.000486 7.28931 3.343619 9.79503 5.852 1.44109 1.442622 2.83255 3.855744 3.12635 5.421827.0925.49324.26813.8968.39021.8968.12208 0 1.04297-.98227 2.04641-2.182814zM35.921056 123.75363c-.95642-.58311-1.637725-1.89944-1.637725-3.16421 0-.44371.287051-2.14417.63789-3.77881.574018-2.67448.646873-3.74036.727604-10.64499.07184-6.1443-.0036-8.437219-.378589-11.509372-.257567-2.110052-.495692-5.443802-.529167-7.408333-.05101-2.99379.0148-3.710319.406637-4.427293 1.196193-2.18876 4.513181-2.18876 5.660473 0 .336861.642651.495664 1.908365.638459 5.088751.104539 2.328333.258219 4.769115.341511 5.423958.810487 6.372097.678083 5.890816 1.571447 5.712143.446547-.08931 2.129176-.26848 3.739174-.398156 4.31653-.347674 57.69895-.28352 71.05748.0854 6.33016.174817 11.54746.293154 11.594.262972.0465-.03018-.0565-1.957306-.22893-4.282498-.17247-2.325192-.26807-5.128646-.21246-6.229899.11685-2.313906.59991-3.193895 2.18562-3.98149.85187-.423107 1.15184-.451952 2.01395-.193659.55714.166925 1.30022.644848 1.65127 1.062051.59567.70792.64975 1.036473.81009 4.922375.0945 2.290104.34668 5.72684.5604 7.637191.21372 1.910352.51229 5.378364.66349 7.706704.15119 2.32833.40457 5.73089.56307 7.56124.34005 3.92712.12219 5.1452-1.10496 6.17778-1.44456 1.21551-4.01503.74563-4.86002-.8884-.23653-.4574-.51496-2.24268-.69047-4.4273-.71325-8.87768-.43502-7.85505-2.22942-8.19424-2.72922-.51589-27.16582-.87328-54.239589-.79326-19.571952.0579-26.675167.16362-28.971876.43139-1.67349.19512-3.130182.4834-3.237094.64064-.106913.15725-.19621 2.14211-.198438 4.41082-.0033 3.32621-.133775 4.78632-.673998 7.54063-.368471 1.87863-.843184 3.80347-1.054917 4.2774-.459154 1.02776-1.804775 1.91444-2.905345 1.91444-.436562 0-1.187868-.24028-1.669567-.53397z" style="fill:#000" transform="translate(-8.3541641 -35.654163)"/>
</svg>